<svg width="329" height="318" viewBox="0 0 329 318" fill="none" xmlns="http://www.w3.org/2000/svg">
<path d="M145.606 178.654C145.606 154.414 131.186 134.692 113.461 134.692C95.7364 134.692 81.3161 154.414 81.3161 178.654C81.3161 202.894 95.7365 222.617 113.461 222.617C131.186 222.617 145.606 202.894 145.606 178.654ZM113.65 203.453C104.306 203.453 96.7314 192.603 96.7314 179.218C96.7314 165.833 104.306 154.982 113.65 154.982C122.994 154.982 130.568 165.833 130.568 179.218C130.568 192.603 122.994 203.453 113.65 203.453ZM218.733 134.692C201.008 134.692 186.587 154.414 186.587 178.654C186.587 202.894 201.008 222.617 218.733 222.617C236.457 222.617 250.878 202.894 250.878 178.654C250.878 154.414 236.457 134.692 218.733 134.692ZM218.921 203.453C209.577 203.453 202.002 192.603 202.002 179.218C202.002 165.833 209.577 154.982 218.921 154.982C228.264 154.982 235.839 165.833 235.839 179.218C235.839 192.603 228.264 203.453 218.921 203.453ZM218.594 237.918C219.31 239.16 219.116 241.029 218.069 242.918C207.123 262.684 181.823 275.797 157.879 274.027C155.42 273.849 152.974 273.516 150.556 273.032C130.309 268.972 115.873 255.197 107.328 244.353C106.438 243.224 105.026 241.011 105.57 238.889C105.737 238.272 106.057 237.708 106.501 237.248C106.945 236.789 107.497 236.449 108.108 236.26C108.572 236.137 109.051 236.078 109.531 236.086C110.12 236.097 110.707 236.138 111.291 236.207C144.249 239.611 173.934 239.97 202.043 237.31C203.667 237.156 205.301 236.932 206.936 236.707C209.165 236.401 211.472 236.084 213.697 235.967C215.49 235.877 217.682 236.342 218.594 237.918Z" fill="white"/>
<path d="M286.215 224.101C285.696 223.862 285.287 223.436 285.07 222.908C284.854 222.38 284.845 221.79 285.047 221.256C285.151 220.985 295.154 193.923 284.492 173.456C279.141 163.186 269.415 156.187 255.585 152.657C255.204 152.56 254.854 152.364 254.572 152.09C254.289 151.815 254.084 151.472 253.975 151.094C253.867 150.715 253.859 150.315 253.953 149.933C254.048 149.55 254.24 149.199 254.513 148.915C254.684 148.109 255.008 145.709 255.118 138.877L255.125 138.437C255.24 133.444 255.079 127.612 253.015 122.242C250.155 114.805 244.293 110.027 239.879 107.33C236.966 105.56 233.852 104.146 230.602 103.118C229.849 102.896 224.094 101.837 221.33 101.326C217.409 100.604 216.999 100.529 216.712 98.997C214.225 85.884 211.238 72.2713 206.273 61.5648C199.128 46.1073 188.086 32.7714 174.229 22.8654C162.979 14.8636 135.808 -0.1527 128.311 7.35484C126.395 9.27803 126.888 12.7489 127.188 14.1524C127.472 15.4723 127.782 16.7746 128.089 18.0626C130.007 26.1326 131.994 34.4779 126.058 42.9817C124.791 44.7948 123.427 46.3877 122.11 47.9277C119.191 51.3381 116.669 54.2839 115.873 58.696C114.748 64.9376 115.849 72.1722 116.818 78.5548C116.899 79.082 116.79 79.6207 116.51 80.075C116.231 80.5293 115.799 80.8698 115.292 81.036C115.043 81.1175 90.2754 89.4507 80.1463 110.459C74.4121 122.348 74.3791 136.117 80.0472 151.381C80.1607 151.686 80.2064 152.013 80.1812 152.338C80.156 152.663 80.0606 152.979 79.9014 153.264C79.7422 153.548 79.5231 153.795 79.2592 153.987C78.9954 154.179 78.693 154.311 78.3729 154.375C78.1923 154.412 60.2847 158.162 50.1821 174.007C42.7582 185.651 41.2581 200.878 45.7233 219.266V219.268C45.7932 219.556 45.8057 219.854 45.76 220.147C45.7143 220.439 45.6114 220.72 45.4572 220.973C45.3029 221.225 45.1003 221.445 44.861 221.62C44.6216 221.794 44.3502 221.92 44.0623 221.989C43.7866 222.059 43.4998 222.073 43.2186 222.031C39.5992 223.33 20.9801 234.569 18.938 236.258C13.9178 240.776 10.0193 246.4 7.55109 252.684C5.08291 258.969 4.11293 265.742 4.718 272.466C5.46489 279.28 7.82993 285.817 11.6162 291.533C15.4024 297.249 20.5002 301.977 26.4851 305.326C47.7456 317.025 75.573 311.362 100.129 306.365C107.064 304.954 113.613 303.622 119.892 302.675H119.894C121.347 302.463 122.814 302.359 124.282 302.364C129.291 302.364 134.431 303.452 139.44 304.515C142.099 305.079 144.608 305.61 147.021 305.964C169.431 309.271 192.009 311.32 214.648 312.102C218.325 312.221 222.044 312.391 225.784 312.558C245.161 313.436 265.197 314.337 283.6 308.824C302.843 303.056 322.931 287.239 324.094 268.166C325.141 250.983 312.397 236.157 286.215 224.101ZM79.0602 178.654C79.0602 153.17 94.4918 132.438 113.461 132.438C132.431 132.438 147.862 153.17 147.862 178.654C147.862 204.138 132.431 224.871 113.461 224.871C94.4918 224.871 79.0602 204.138 79.0602 178.654ZM220.043 244.01C209.22 263.556 185.982 276.442 162.366 276.445C160.815 276.445 159.265 276.389 157.716 276.277C155.162 276.09 152.622 275.744 150.111 275.243C129.192 271.048 114.336 256.89 105.557 245.749C103.574 243.233 102.803 240.597 103.385 238.33C103.648 237.332 104.164 236.418 104.882 235.676C105.6 234.935 106.497 234.39 107.487 234.094C108.811 233.792 110.182 233.749 111.523 233.966C144.333 237.35 173.872 237.711 201.832 235.065C203.424 234.915 205.024 234.695 206.627 234.473C208.905 234.16 211.258 233.836 213.582 233.717C216.699 233.541 219.338 234.702 220.546 236.791C221.68 238.75 221.497 241.383 220.043 244.01ZM218.733 224.871C199.763 224.871 184.332 204.138 184.332 178.654C184.332 153.17 199.763 132.438 218.733 132.438C237.702 132.438 253.134 153.17 253.134 178.654C253.134 204.138 237.702 224.871 218.733 224.871Z" fill="#936B45"/>
<path d="M289.951 220.871C292.187 213.951 298.472 190.556 288.506 171.398C282.855 160.537 272.962 152.99 259.079 148.939C259.459 145.623 259.642 142.288 259.63 138.95L259.637 138.545C259.753 133.424 259.586 126.762 257.226 120.626C253.913 112.006 247.243 106.546 242.231 103.482C239.011 101.525 235.567 99.9605 231.974 98.8231C231.228 98.5831 228.077 97.9841 222.147 96.8922C221.671 96.8041 221.235 96.7249 220.859 96.6544C218.371 83.7198 215.344 70.4042 210.366 59.6668C202.892 43.5 191.341 29.5526 176.846 19.1931C176.456 18.9134 137.678 -8.42869 125.117 4.17234C122.667 6.62827 121.815 10.61 122.777 15.0981C123.068 16.4509 123.385 17.7862 123.698 19.1062C125.544 26.8592 127.137 33.5554 122.357 40.4015C121.218 42.0329 119.929 43.5399 118.682 44.9974C115.616 48.5783 112.446 52.2814 111.432 57.8946C110.287 64.2507 111.146 71.1418 112.082 77.4055C105.87 79.8053 85.5435 88.9156 76.0973 108.468C70.0965 120.888 69.7243 135.049 74.9827 150.595C69.2925 152.259 55.326 157.591 46.4107 171.53C38.5573 183.808 36.6935 199.524 40.8592 218.268C33.1733 221.36 16.116 232.731 15.9508 232.878C10.3988 237.875 6.08759 244.095 3.35862 251.046C0.62965 257.997 -0.442034 265.487 0.22849 272.924C1.05485 280.462 3.67126 287.694 7.85983 294.017C12.0484 300.34 17.6879 305.571 24.3087 309.275C47.0252 321.776 75.7141 315.938 101.03 310.783C107.905 309.383 114.4 308.062 120.566 307.135H120.563C126.113 306.305 132.413 307.633 138.504 308.925C141.115 309.478 143.813 310.05 146.369 310.425C168.945 313.757 191.691 315.821 214.499 316.607C218.16 316.728 221.859 316.895 225.581 317.063C232.886 317.393 240.279 317.727 247.668 317.727C260.26 317.727 272.834 316.757 284.895 313.144C304.999 307.118 327.249 290.557 328.597 268.439C329.743 249.64 316.743 233.642 289.951 220.871ZM324.094 268.166C322.931 287.239 302.842 303.056 283.6 308.824C265.197 314.337 245.161 313.436 225.784 312.558C222.044 312.391 218.325 312.221 214.648 312.102C192.009 311.32 169.431 309.271 147.021 305.964C144.608 305.61 142.099 305.079 139.44 304.515C134.431 303.452 129.291 302.364 124.282 302.364C122.814 302.359 121.347 302.463 119.894 302.675H119.891C113.613 303.622 107.064 304.954 100.129 306.365C75.573 311.362 47.7456 317.025 26.4851 305.326C20.5002 301.977 15.4024 297.249 11.6162 291.533C7.82992 285.817 5.46488 279.28 4.71799 272.466C4.11292 265.742 5.0829 258.969 7.55108 252.684C10.0193 246.4 13.9178 240.776 18.938 236.258C20.9801 234.569 39.5992 223.33 43.2186 222.031C43.4998 222.073 43.7866 222.059 44.0623 221.989C44.3502 221.92 44.6216 221.794 44.861 221.62C45.1003 221.445 45.3029 221.225 45.4572 220.973C45.6114 220.72 45.7143 220.439 45.76 220.147C45.8057 219.854 45.7932 219.556 45.7233 219.268V219.266C41.2581 200.878 42.7582 185.651 50.1821 174.007C60.2847 158.162 78.1923 154.412 78.3729 154.375C78.693 154.311 78.9953 154.179 79.2592 153.987C79.5231 153.795 79.7422 153.548 79.9014 153.264C80.0606 152.979 80.156 152.663 80.1812 152.338C80.2064 152.013 80.1607 151.686 80.0472 151.381C74.3791 136.117 74.4121 122.348 80.1462 110.459C90.2754 89.4507 115.043 81.1175 115.292 81.036C115.799 80.8698 116.231 80.5292 116.51 80.0749C116.79 79.6206 116.899 79.082 116.818 78.5548C115.849 72.1722 114.748 64.9376 115.873 58.696C116.669 54.2839 119.191 51.3381 122.11 47.9277C123.427 46.3877 124.791 44.7948 126.058 42.9817C131.994 34.4779 130.007 26.1326 128.089 18.0625C127.782 16.7746 127.472 15.4723 127.188 14.1524C126.888 12.7489 126.395 9.27801 128.311 7.35482C135.808 -0.152719 162.979 14.8636 174.229 22.8654C188.086 32.7713 199.128 46.1072 206.273 61.5647C211.238 72.2713 214.225 85.884 216.712 98.997C216.999 100.529 217.409 100.604 221.33 101.326C224.094 101.837 229.849 102.896 230.602 103.118C233.852 104.146 236.966 105.56 239.879 107.33C244.293 110.027 250.155 114.805 253.015 122.242C255.079 127.612 255.24 133.444 255.125 138.437L255.118 138.877C255.008 145.709 254.684 148.109 254.512 148.915C254.24 149.199 254.048 149.55 253.953 149.933C253.859 150.315 253.867 150.715 253.975 151.094C254.084 151.472 254.289 151.815 254.572 152.09C254.854 152.364 255.204 152.56 255.585 152.657C269.415 156.187 279.141 163.186 284.492 173.456C295.154 193.923 285.151 220.985 285.047 221.256C284.845 221.79 284.854 222.38 285.07 222.908C285.287 223.436 285.696 223.862 286.215 224.101C312.397 236.157 325.141 250.983 324.094 268.166ZM113.461 132.438C94.4918 132.438 79.0602 153.17 79.0602 178.654C79.0602 204.138 94.4918 224.871 113.461 224.871C132.431 224.871 147.862 204.138 147.862 178.654C147.862 153.17 132.431 132.438 113.461 132.438ZM81.3161 178.654C81.3161 154.414 95.7365 134.692 113.461 134.692C131.186 134.692 145.606 154.414 145.606 178.654C145.606 202.894 131.186 222.617 113.461 222.617C95.7364 222.617 81.3161 202.894 81.3161 178.654ZM130.568 179.218C130.568 192.602 122.994 203.453 113.65 203.453C104.306 203.453 96.7314 192.602 96.7314 179.218C96.7314 165.833 104.306 154.982 113.65 154.982C122.994 154.982 130.568 165.833 130.568 179.218ZM218.733 132.438C199.763 132.438 184.332 153.17 184.332 178.654C184.332 204.138 199.763 224.871 218.733 224.871C237.702 224.871 253.134 204.138 253.134 178.654C253.134 153.17 237.702 132.438 218.733 132.438ZM218.733 222.617C201.008 222.617 186.587 202.894 186.587 178.654C186.587 154.414 201.008 134.692 218.733 134.692C236.457 134.692 250.878 154.414 250.878 178.654C250.878 202.894 236.457 222.617 218.733 222.617ZM235.839 179.218C235.839 192.602 228.264 203.453 218.92 203.453C209.577 203.453 202.002 192.602 202.002 179.218C202.002 165.833 209.577 154.982 218.92 154.982C228.264 154.982 235.839 165.833 235.839 179.218ZM220.545 236.791C219.338 234.702 216.699 233.541 213.582 233.717C211.258 233.836 208.905 234.16 206.627 234.473C205.024 234.695 203.424 234.915 201.832 235.065C173.872 237.711 144.333 237.35 111.523 233.966C110.182 233.749 108.811 233.792 107.487 234.094C106.497 234.39 105.6 234.935 104.882 235.676C104.164 236.418 103.648 237.332 103.385 238.33C102.803 240.597 103.574 243.233 105.557 245.749C114.336 256.89 129.192 271.048 150.111 275.243C152.622 275.744 155.162 276.09 157.716 276.277C159.267 276.39 160.817 276.445 162.366 276.445C185.982 276.442 209.22 263.556 220.043 244.01C221.497 241.383 221.68 238.75 220.545 236.791ZM218.069 242.918C207.123 262.684 181.823 275.797 157.879 274.027C155.42 273.849 152.974 273.516 150.556 273.032C130.309 268.972 115.873 255.197 107.328 244.353C106.438 243.224 105.026 241.011 105.57 238.889C105.737 238.272 106.057 237.708 106.501 237.248C106.945 236.789 107.497 236.449 108.108 236.26C108.572 236.137 109.051 236.078 109.531 236.086C110.12 236.097 110.707 236.138 111.291 236.207C144.249 239.611 173.934 239.97 202.043 237.31C203.667 237.156 205.301 236.932 206.936 236.707C209.165 236.401 211.472 236.084 213.697 235.967C215.49 235.877 217.682 236.342 218.594 237.918C219.31 239.16 219.116 241.029 218.069 242.918Z" fill="#010101"/>
</svg>
