<?xml version="1.0" encoding="UTF-8" standalone="no" ?>
<!DOCTYPE svg PUBLIC "-//W3C//DTD SVG 1.1//EN" "http://www.w3.org/Graphics/SVG/1.1/DTD/svg11.dtd">
<svg xmlns="http://www.w3.org/2000/svg" xmlns:xlink="http://www.w3.org/1999/xlink" version="1.1" width="1080" height="1080" viewBox="0 0 1080 1080" xml:space="preserve">
<desc>Created with Fabric.js 5.2.4</desc>
<defs>
</defs>
<rect x="0" y="0" width="100%" height="100%" fill="transparent"></rect>
<g transform="matrix(1 0 0 1 540 540)" id="bcf0321d-0037-438c-be0a-56632698b8ee"  >
<rect style="stroke: none; stroke-width: 1; stroke-dasharray: none; stroke-linecap: butt; stroke-dashoffset: 0; stroke-linejoin: miter; stroke-miterlimit: 4; fill: rgb(255,255,255); fill-rule: nonzero; opacity: 1; visibility: hidden;" vector-effect="non-scaling-stroke"  x="-540" y="-540" rx="0" ry="0" width="1080" height="1080" />
</g>
<g transform="matrix(Infinity NaN NaN Infinity 0 0)" id="01f0b844-dd1f-42fb-9521-656e02cdc99d"  >
</g>
<g transform="matrix(1 0 0 1 178.88 172.16)" id="809ff8c2-d933-4f2f-ae52-ff60c05a92c9"  >
<path style="stroke: rgb(0,0,0); stroke-width: 0; stroke-dasharray: none; stroke-linecap: butt; stroke-dashoffset: 0; stroke-linejoin: miter; stroke-miterlimit: 4; fill: rgb(1,1,1); fill-rule: nonzero; opacity: 1;" vector-effect="non-scaling-stroke"  transform=" translate(-566.88, -194.62)" d="M 695.21388 255.0638 C 697.82188 246.17379999999997 702.62148 224.12599999999998 693.04868 205.7138 C 687.357 194.7643 677.62548 187.0296 664.08338 182.6782 C 664.264 180.6539 664.37418 177.9512 664.4291800000001 174.276 L 664.4336800000001 173.93900000000002 C 664.5591800000001 168.6107 664.3807800000001 161.66020000000003 661.8784800000001 155.14790000000002 C 659.0744800000001 147.85270000000003 653.57 141.53650000000002 645.9575800000001 136.88330000000002 C 642.5820298068613 134.82790397638965 638.971627724139 133.18575605926472 635.2040800000001 131.99220000000003 C 634.4154800000001 131.74110000000002 632.2854800000001 131.31820000000002 625.3271800000001 130.03520000000003 C 622.8711800000001 117.43580000000003 619.8491800000002 104.56560000000003 614.9613800000001 94.02130000000002 C 607.3246027244429 77.49037661000061 595.5203768997378 63.22942831269165 580.70748 52.63840000000002 C 576.55548 49.68130000000003 539.74199 24.144500000000026 526.07658 37.85730000000002 C 523.0786800000001 40.86730000000002 522.00599 45.603100000000026 523.13378 50.85100000000003 C 523.42678 52.221000000000025 523.74838 53.57240000000003 524.06548 54.907200000000024 C 525.85408 62.43600000000002 527.26818 68.38320000000003 523.06768 74.40420000000003 C 521.99278 75.94500000000004 520.79678 77.34480000000003 519.52799 78.82610000000003 C 516.4199900000001 82.46050000000002 512.89799 86.57960000000003 511.77678000000003 92.79660000000003 C 510.68208000000004 98.85290000000003 511.33628000000004 105.47200000000002 512.15788 111.29030000000003 C 504.29868 114.58890000000002 485.67938 124.07250000000003 476.63298999999995 142.81180000000003 C 470.64827999999994 155.20520000000005 470.0072799999999 169.20330000000004 474.70787999999993 184.48440000000005 C 467.8530799999999 186.84890000000004 455.37047999999993 192.70040000000006 447.0795799999999 205.66970000000006 C 439.1609899999999 218.05980000000005 437.0617799999999 233.71320000000006 440.8261799999999 252.24880000000007 C 438.5507799999999 253.37540000000007 435.3304799999999 255.16950000000008 430.61457999999993 257.96580000000006 C 426.78187999999994 260.23900000000003 418.41387999999995 265.33490000000006 417.0195799999999 266.5794000000001 C 404.9789365647787 277.17119023158097 398.8515996229504 292.9636693829844 400.59778251995397 308.90462167367775 C 402.34396541695753 324.84557396437106 411.7448152161366 338.9370848414729 425.7928799999999 346.6711000000001 C 449.2359899999999 359.5777000000001 478.35547999999994 353.6459000000001 504.0453799999999 348.4145000000001 C 510.89127999999994 347.0202000000001 517.3561799999999 345.7041000000001 523.4619899999999 344.7834000000001 C 528.6074799999999 344.0125000000001 534.6978799999999 345.3022000000001 540.5878799999999 346.5522000000001 C 543.2354799999999 347.1128000000001 545.9711799999999 347.6943000000001 548.59678 348.0786000000001 C 571.2556005518616 351.4232609117183 594.0839987076664 353.4959414747466 616.9746799999996 354.28690000000023 C 620.6200799999999 354.4069000000001 624.30738 354.5732000000001 628.01888 354.7418000000001 C 635.36268 355.07330000000013 642.7966799999999 355.4092000000001 650.2373799999999 355.4092000000001 C 662.9952799999999 355.4092000000001 675.7641799999999 354.42020000000014 688.0860799999999 350.7252000000001 C 708.9145799999999 344.4795000000001 731.97228 327.1862000000001 733.3841799999999 303.9776000000001 C 734.56478 284.5863 721.72758 268.1433 695.21388 255.0638 Z M 454.62159 210.6236 C 464.17019000000005 195.5903 481.21459000000004 191.96800000000002 481.37319 191.9349 C 482.67012684114815 191.67844471506882 483.78930443929784 190.8660147649162 484.43492872496915 189.71233206813696 C 485.0805530106404 188.55864937135775 485.1876410823515 187.1798335515318 484.72789 185.9403 C 479.28719 171.2793 479.28719 158.1083 484.73009 146.7921 C 493.90700000000004 127.70930000000001 515.84569 119.4535 518.3131900000001 118.57570000000001 C 520.3653735688084 118.90166693242172 522.4415353265981 119.05274323635139 524.5192900000001 119.02730000000003 C 533.9820000000001 119.02730000000001 548.57919 116.70230000000001 560.14989 110.35640000000001 C 560.8578542119099 109.96988978354723 561.3055231868159 109.23473399795584 561.3239682463618 108.42834497735484 C 561.3424133059078 107.62195595675384 560.9288263344474 106.86710010480586 560.2392751061408 106.44862361047394 C 559.5497238778341 106.03014711614203 558.6891871588571 106.01175974346562 557.98239 106.4004 C 545.04549 113.49690000000001 529.00839 114.92370000000001 521.64319 114.4912 C 521.667489144351 114.16930749920084 521.6569614652288 113.8457322405766 521.61179 113.5261 C 520.66679 107.3123 519.59409 100.2681 520.65359 94.398 C 521.343 90.58619999999999 523.56769 87.9849 526.385 84.6908 C 527.8314407155934 83.05227555858984 529.1943988436457 81.34190694025284 530.46869 79.56620000000001 C 536.9798900000001 70.22789999999999 534.78159 60.97999999999999 532.84319 52.821299999999994 C 532.53929 51.54919999999999 532.2330900000001 50.26279999999999 531.95339 48.9588 C 531.50179 46.850899999999996 531.70449 44.9918 532.46879 44.224199999999996 C 537.83009 38.842999999999996 561.13009 49.774899999999995 575.47389 59.9888 C 589.0113882210413 69.67020378702878 599.7985320142969 82.70565708805245 606.77629 97.8154 C 611.28429 107.53739999999999 614.13459 119.7902 616.47959 131.8277 C 607.86989 139.7231 579.51201 163.469 537.46009 176.1406 L 537.54159 176.4121 C 531.5617900000001 170.3133 524.11649 166.6459 516.02359 166.6459 C 496.43509 166.6459 480.49869 187.8941 480.49869 214.0124 C 480.49869 230.1672 486.60449 244.4427 495.89159 252.99560000000002 C 477.14459 254.63550000000004 459.91569 255.11800000000002 450.59539 255.2572 C 450.60801615351266 254.8723732912473 450.57091289068086 254.48752651216887 450.485 254.1122 L 450.485 254.11 L 450.48059 254.0946 C 446.17649 236.3498 447.57079 221.7251 454.62159 210.6236 Z M 485.00979 214.0124 C 485.00979 190.382 498.92189 171.157 516.02359 171.157 C 533.12529 171.157 547.03729 190.382 547.03729 214.0124 C 547.03729 237.64280000000002 533.12519 256.8678 516.02359 256.8678 C 498.92199000000005 256.8678 485.00979 237.6428 485.00979 214.0124 Z M 409.53489 307.6385 C 408.370894821817 294.759905108548 413.32560010427926 282.08275574968025 422.914 273.4066 C 425.03418999999997 271.7619 441.29059 261.86580000000004 445.89108999999996 259.81620000000004 C 453.38039 259.77500000000003 476.48049 259.44230000000005 501.24328999999994 257.02950000000004 C 505.66882367302753 259.8275610869506 510.78789770957843 261.3339513912458 516.0235899999999 261.37890000000004 C 524.7535899999999 261.37890000000004 532.7457899999999 257.14020000000005 538.9374899999999 250.14930000000004 C 552.8016899999999 246.38810000000004 571.8667899999999 239.66000000000003 587.4650899999999 228.47150000000005 C 592.0611899999999 247.53630000000004 605.47719 261.37890000000004 621.2830899999999 261.37890000000004 C 640.8715899999999 261.37890000000004 656.8080099999999 240.13070000000005 656.8080099999999 214.01240000000004 C 656.8080099999999 187.89410000000004 640.8715899999999 166.64590000000004 621.2830899999999 166.64590000000004 C 601.69459 166.64590000000004 585.7582899999999 187.89410000000004 585.7582899999999 214.01240000000004 C 585.7569135879459 217.22490649626536 586.0025710866331 220.4327628264293 586.4930899999998 223.60760000000002 C 573.1307899999998 233.65280000000004 556.6673899999998 240.15780000000004 543.3893899999998 244.17850000000004 C 548.8448643011931 235.07048763051264 551.6690752416906 224.62859160745296 551.5483899999998 214.01240000000004 C 551.5483899999998 200.60520000000005 547.3302899999998 188.50770000000006 540.5933899999998 179.88250000000005 C 569.0303090249545 170.91312792200088 595.324111394714 156.20359592981384 617.8477899999998 136.6641 C 618.8763899999998 138.00640000000004 620.7428899999998 138.36420000000004 623.5342899999998 138.87890000000004 C 625.9681899999998 139.32830000000004 631.6687899999998 140.37900000000005 632.4660899999998 140.58930000000004 C 635.543578077551 141.5628494862006 638.4928448539669 142.90290031378035 641.2503899999998 144.58060000000003 C 647.0676899999999 148.13680000000002 651.4025899999998 153.03890000000004 653.4554899999998 158.38370000000003 C 655.3805899999999 163.39260000000004 655.5260099999998 168.95100000000002 655.4158899999999 173.73200000000003 L 655.4070899999999 174.13840000000002 C 655.4264729362067 177.2063641998523 655.2676052935311 180.2728636330865 654.9312899999999 183.32240000000002 C 654.1237987927462 184.54031159429277 653.9557093596878 186.07372828803207 654.4801865622463 187.43764704122117 C 655.004663764805 188.80156579441027 656.1568383445388 189.82729214776163 657.5722899999998 190.1904 L 657.5766899999999 190.1904 C 670.7464899999999 193.555 679.9823899999999 200.16410000000002 685.0242899999998 209.8372 C 695.2204899999998 229.3915 685.5793899999999 255.577 685.4824899999999 255.8347 C 685.4370099999999 255.9545 685.4180899999999 256.077 685.3833899999998 256.198 C 650.6657899999999 311.1687 515.3192899999999 337.4342 468.45549999999986 345.0118 C 454.7316999999999 346.0741 441.40549999999985 344.9668 430.1453999999999 338.7679 C 418.648005167329 332.33220944549413 410.9703346003533 320.736121908232 409.53489 307.6385 Z M 590.26939 214.0124 C 590.26939 190.382 604.18149 171.157 621.28309 171.157 C 638.38469 171.157 652.29689 190.382 652.29689 214.0124 C 652.29689 237.64280000000002 638.38469 256.8678 621.28309 256.8678 C 604.18149 256.8678 590.26939 237.6428 590.26939 214.0124 Z M 724.37959 303.42920000000004 C 723.28049 321.4802 703.98719 336.53770000000003 685.49569 342.08400000000006 C 667.45789 347.49270000000007 647.62059 346.5973000000001 628.42639 345.7284000000001 C 624.67739 345.5588000000001 620.95489 345.3903000000001 617.26979 345.2691000000001 C 594.7182597793449 344.4899467365495 572.2281237869862 342.44744365647995 549.9051899999998 339.1512 C 547.5637899999999 338.8087000000001 545.08349 338.28220000000005 542.4600899999999 337.72600000000006 C 540.117 337.2291000000001 537.7441899999999 336.7377000000001 535.3614899999999 336.33810000000005 C 591.9364899999999 322.6075000000001 661.2430899999999 298.8337000000001 687.4092899999998 261.29350000000005 C 687.5395700662162 261.3789810133193 687.6742926641333 261.45749130824026 687.8128899999998 261.5287000000001 C 713.06008 273.1632 725.36418 287.2615 724.37958 303.4292 Z M 516.21129 238.8237 C 506.86868999999996 238.8237 499.29468999999995 227.96790000000001 499.29468999999995 214.5766 C 499.29468999999995 201.1853 506.86868999999996 190.32940000000002 516.21129 190.32940000000002 C 525.5538899999999 190.32940000000002 533.12789 201.1852 533.12789 214.5766 C 533.12789 227.96800000000002 525.554 238.8237 516.21129 238.8237 Z M 604.55369 214.5766 C 604.55369 201.1852 612.12739 190.32940000000002 621.47029 190.32940000000002 C 630.81301 190.32940000000002 638.38689 201.1852 638.38689 214.5766 C 638.38689 227.96800000000002 630.81301 238.8237 621.47029 238.8237 C 612.12738 238.8237 604.55368 227.9679 604.55368 214.5766 Z M 552.44709 311.7531 C 555.0041828906927 312.2652044552158 557.5907437542327 312.61722200940466 560.19169 312.8071 Q 562.55074 312.97884999999997 564.9142899999999 312.9778 C 588.9278899999999 312.9778 612.5648899999999 299.8509 623.5782899999999 279.9442 C 625.22809 276.96180000000004 625.40649 273.9254 624.0716899999999 271.6125 C 622.6465899999998 269.14660000000003 619.6332899999999 267.7953 616.0715899999999 267.9748 C 613.7036899999999 268.0971 611.3270099999999 268.42420000000004 609.0295899999999 268.7413 C 607.4414899999998 268.9594 605.8554899999999 269.1786 604.2783899999998 269.32840000000004 C 576.3990899999999 271.96940000000006 546.9381899999998 271.60920000000004 514.1974899999998 268.22920000000005 C 512.7140060262732 267.99514776564524 511.1991961811201 268.0512518339842 509.7370899999998 268.3944000000001 C 507.34319774733603 269.1113729459322 505.49386200232954 271.0208093570318 504.8537899999998 273.43640000000005 C 504.1840899999998 276.05420000000004 505.0299999999998 279.03670000000005 507.23268999999976 281.83630000000005 C 519.98619 298.0315 535.62079 308.3764 552.44709 311.7531 Z M 509.22389 274.5564 C 509.46548551485256 273.6899039590872 510.12695106062375 273.0031810210347 510.98379 272.7293 C 511.8939244554456 272.5657474151076 512.825529249126 272.56128123392193 513.73719 272.71610000000004 C 546.76859 276.12360000000007 576.5245900000001 276.48490000000004 604.7034900000001 273.81960000000004 C 606.34229 273.6643 607.9920900000001 273.43750000000006 609.6440900000001 273.20950000000005 C 611.9503900000001 272.89230000000003 614.1287900000001 272.5916 616.3050900000001 272.4793 C 617.6948900000001 272.4198 619.5077900000001 272.73040000000003 620.1641900000001 273.8681 C 620.7742900000001 274.9243 620.2896900000001 276.5719 619.6310900000001 277.7613 C 608.8885900000001 297.1725 584.0136900000001 310.0163 560.5176900000001 308.307 C 558.10464970654 308.13131456818536 555.7049422874062 307.8050457371668 553.3325900000001 307.3301 C 533.4224900000002 303.3345 519.2020000000001 289.7439 510.7767900000001 279.0455 C 510.16439 278.2668 508.78549 276.2701 509.22389 274.5564 Z" stroke-linecap="round" />
</g>
</svg>